<?xml version="1.0" standalone="no"?>
<!DOCTYPE svg PUBLIC "-//W3C//DTD SVG 20010904//EN"
 "http://www.w3.org/TR/2001/REC-SVG-20010904/DTD/svg10.dtd">
<svg version="1.0" xmlns="http://www.w3.org/2000/svg"
 width="129.000000pt" height="50.000000pt" viewBox="0 0 129.000000 50.000000"
 preserveAspectRatio="xMidYMid meet">
<metadata>
Created by potrace 1.10, written by Peter Selinger 2001-2011
</metadata>
<g transform="translate(0.000000,50.000000) scale(0.100000,-0.100000)"
fill="#000000" stroke="none">
<path d="M360 462 c-8 -2 -22 -11 -31 -19 -16 -14 -69 -9 -69 6 0 4 -38 7 -85
7 -119 -1 -118 1 -117 -176 0 -160 0 -159 72 -161 93 -4 149 5 193 28 4 3 6
-1 5 -8 -5 -20 49 -36 73 -21 14 9 25 9 39 2 29 -15 55 -12 75 10 17 19 18 19
43 0 13 -11 33 -20 44 -20 28 0 60 19 52 32 -5 7 -2 8 5 4 8 -5 10 -19 6 -36
-5 -21 -1 -34 14 -49 46 -46 92 -16 140 87 22 47 41 67 41 42 0 -20 61 -78 88
-83 15 -3 41 1 59 8 26 11 38 11 72 -1 77 -26 174 19 157 73 -3 10 -2 34 4 52
12 44 -7 90 -50 121 -26 18 -40 21 -78 17 -26 -3 -57 -9 -70 -12 -17 -6 -29 0
-55 28 -47 50 -68 54 -110 17 -19 -16 -42 -30 -50 -30 -9 0 -29 -11 -44 -24
l-28 -25 -22 21 c-13 12 -35 20 -50 20 -15 -1 -39 -1 -53 -1 -14 0 -62 1 -108
2 -81 2 -82 2 -82 28 0 38 -45 72 -80 61z m-101 -47 c45 -23 55 -71 21 -105
-15 -15 -16 -21 -6 -27 38 -23 39 -94 1 -119 -14 -9 -54 -15 -108 -17 l-87 -3
0 143 0 143 75 0 c47 0 87 -6 104 -15z m151 -10 c0 -22 -4 -25 -35 -25 -31 0
-35 3 -35 25 0 22 4 25 35 25 31 0 35 -3 35 -25z m540 -35 c0 -27 3 -30 30
-30 23 0 30 -4 30 -20 0 -16 -7 -20 -31 -20 l-30 0 3 -52 c3 -49 5 -53 30 -56
26 -3 43 -25 32 -43 -9 -16 -71 -10 -94 9 -19 16 -22 27 -21 80 1 56 -1 62
-19 62 -12 0 -20 7 -20 18 0 9 -24 -37 -53 -103 -64 -147 -62 -145 -93 -145
-22 0 -24 3 -19 23 4 12 13 31 20 42 10 17 6 33 -31 112 l-43 93 33 0 c31 0
33 -3 56 -66 l23 -66 26 66 25 66 49 0 50 0 -6 30 c-6 28 -4 30 23 30 27 0 30
-3 30 -30z m-346 -41 c24 -19 26 -26 26 -105 l0 -85 -27 3 c-27 3 -28 4 -25
60 5 73 -3 98 -32 98 -36 0 -46 -19 -46 -93 0 -68 0 -68 -26 -65 -26 3 -26 3
-28 101 l-1 97 28 0 c15 0 27 -5 27 -11 0 -5 10 -3 22 5 30 21 50 20 82 -5z
m575 -5 c23 -19 31 -34 31 -59 l0 -34 -70 -3 c-68 -3 -70 -4 -57 -23 14 -18
39 -21 102 -13 30 4 30 -27 0 -40 -46 -21 -92 -15 -127 17 -28 25 -33 36 -33
74 0 91 88 137 154 81z m-779 -85 l0 -100 -26 3 c-26 3 -26 3 -28 101 l-1 97
28 0 27 0 0 -101z"/>
<path d="M130 345 l0 -36 53 3 c50 3 52 4 52 33 0 29 -2 30 -52 33 l-53 3 0
-36z"/>
<path d="M130 230 l0 -40 48 0 c51 0 72 12 72 42 0 23 -30 38 -79 38 l-41 0 0
-40z"/>
<path d="M1098 299 c-35 -20 -21 -39 27 -39 49 0 55 8 27 33 -21 19 -30 20
-54 6z"/>
</g>
</svg>
